<svg xmlns="http://www.w3.org/2000/svg" width="585.432" height="742.49" viewBox="0 0 585.432 742.49">
  <g id="tree" transform="translate(-32 -187.51)">
    <path id="tree-solid" d="M479.863,337.2l10.474-29.91c7.671,0,15.884-8.718,19.119-16.106,3.235-7.37-14.156-40.284-19.119-46.508,0,0,10.579-10.756,0-22.9s-28.165-23.112-28.165-23.112a57.52,57.52,0,0,1,3.61-15.035,21.592,21.592,0,0,0-3.61-22.074s-20.036-3.891-32.546-22.258c-4.839-13.216-25.268-22.475-34.547-36.907-6.681-29.791-36.6-53.22-36.6-53.22S363,15.245,332.155-7.538s-66.242-24.393-97.037-34.427c-55.289-18.014-63.017,8.128-97.79,19.076S99.217,37.078,70.641,49.167c-25.713,10.878-34.3-.524-64.6,27.526s-58.388,80.232-56.607,84.674A19.3,19.3,0,0,0-32.8,173.843s-11.012-.948-17.768,24.817-22.351,14.633-24.664,56.085,7.48,97.82,15.41,109.724C-49.86,379.423-19.972,351-19.972,351s-36.277,39.325,0,45.576,15.882,18.747,63.489,11.935c17.043-2.439,28.84-21.893,52.292-30.436s26.371-6.721,41.518-3.738,33.127,34.174,33.127,34.174,9.665,1.054,9.665,72.518c0,9.648-6.405,46.567-6.718,58.551-.813,31.192-3.922,71.454-4.408,98.725-.172,9.623,0,48.7,0,48.7S-7.947,691.065,6.04,694.364H395.947C395.13,692.523,221.673,687,221.673,687s.524-42.863,0-49.3c-1.047-12.857,3.686-34.613,3.686-54.194,0-25.156-1.572-44.612.042-73.976a906.1,906.1,0,0,0-.46-101.03s-6.649-34.227,59.429-34.174c13.414.011,47.786,3.738,47.786,3.738s30.036,17.239,50.753,18.5-.686-19.85,32.116-13.451,33,13.451,33,13.451c3.475,0,0-22.239,0-22.239s27.3,12.825,29.048,8.788C480.306,375.631,484.971,343.42,479.863,337.2Z" transform="translate(107.577 235.636)" fill="#208719"/>
    <text id="求人_新着情報" data-name="求人・新着情報" transform="translate(101.161 487.986)" fill="#fff" font-size="64" font-family="SourceHanSansJP-Bold, Source Han Sans JP" font-weight="700"><tspan x="0" y="0">求人・新着情報</tspan></text>
  </g>
</svg>
